<mxfile host="app.diagrams.net" agent="Mozilla/5.0 (Windows NT 10.0; Win64; x64) AppleWebKit/537.36 (KHTML, like Gecko) Chrome/141.0.0.0 Safari/537.36" version="28.2.5">
  <diagram name="Page-1" id="4fMJkepX_Un7O8Lys7OO">
    <mxGraphModel dx="1426" dy="783" grid="1" gridSize="10" guides="1" tooltips="1" connect="1" arrows="1" fold="1" page="1" pageScale="1" pageWidth="850" pageHeight="1100" math="0" shadow="0">
      <root>
        <mxCell id="0" />
        <mxCell id="1" parent="0" />
        <mxCell id="77SmK8_A5zseVmHeN4Ww-6" value="" style="edgeStyle=orthogonalEdgeStyle;rounded=0;orthogonalLoop=1;jettySize=auto;html=1;" edge="1" parent="1" source="77SmK8_A5zseVmHeN4Ww-2" target="77SmK8_A5zseVmHeN4Ww-4">
          <mxGeometry relative="1" as="geometry" />
        </mxCell>
        <mxCell id="77SmK8_A5zseVmHeN4Ww-2" value="start" style="ellipse;whiteSpace=wrap;html=1;" vertex="1" parent="1">
          <mxGeometry x="350" y="50" width="120" height="80" as="geometry" />
        </mxCell>
        <mxCell id="77SmK8_A5zseVmHeN4Ww-7" value="" style="edgeStyle=orthogonalEdgeStyle;rounded=0;orthogonalLoop=1;jettySize=auto;html=1;" edge="1" parent="1" source="77SmK8_A5zseVmHeN4Ww-4" target="77SmK8_A5zseVmHeN4Ww-5">
          <mxGeometry relative="1" as="geometry" />
        </mxCell>
        <mxCell id="77SmK8_A5zseVmHeN4Ww-4" value="แสดงข้อความ &quot;Enter Height :&quot;" style="rounded=0;whiteSpace=wrap;html=1;" vertex="1" parent="1">
          <mxGeometry x="350" y="170" width="120" height="60" as="geometry" />
        </mxCell>
        <mxCell id="77SmK8_A5zseVmHeN4Ww-9" value="" style="edgeStyle=orthogonalEdgeStyle;rounded=0;orthogonalLoop=1;jettySize=auto;html=1;" edge="1" parent="1" source="77SmK8_A5zseVmHeN4Ww-5" target="77SmK8_A5zseVmHeN4Ww-8">
          <mxGeometry relative="1" as="geometry" />
        </mxCell>
        <mxCell id="77SmK8_A5zseVmHeN4Ww-5" value="รับค่า Height" style="shape=parallelogram;perimeter=parallelogramPerimeter;whiteSpace=wrap;html=1;fixedSize=1;" vertex="1" parent="1">
          <mxGeometry x="350" y="260" width="120" height="60" as="geometry" />
        </mxCell>
        <mxCell id="77SmK8_A5zseVmHeN4Ww-11" value="" style="edgeStyle=orthogonalEdgeStyle;rounded=0;orthogonalLoop=1;jettySize=auto;html=1;" edge="1" parent="1" source="77SmK8_A5zseVmHeN4Ww-8" target="77SmK8_A5zseVmHeN4Ww-10">
          <mxGeometry relative="1" as="geometry" />
        </mxCell>
        <mxCell id="77SmK8_A5zseVmHeN4Ww-8" value="แสดงข้อความ &quot;Enter Width :&quot;" style="rounded=0;whiteSpace=wrap;html=1;" vertex="1" parent="1">
          <mxGeometry x="350" y="360" width="120" height="60" as="geometry" />
        </mxCell>
        <mxCell id="77SmK8_A5zseVmHeN4Ww-13" value="" style="edgeStyle=orthogonalEdgeStyle;rounded=0;orthogonalLoop=1;jettySize=auto;html=1;" edge="1" parent="1" source="77SmK8_A5zseVmHeN4Ww-10" target="77SmK8_A5zseVmHeN4Ww-12">
          <mxGeometry relative="1" as="geometry" />
        </mxCell>
        <mxCell id="77SmK8_A5zseVmHeN4Ww-10" value="รับค่า Width" style="shape=parallelogram;perimeter=parallelogramPerimeter;whiteSpace=wrap;html=1;fixedSize=1;" vertex="1" parent="1">
          <mxGeometry x="350" y="460" width="120" height="60" as="geometry" />
        </mxCell>
        <mxCell id="77SmK8_A5zseVmHeN4Ww-15" value="" style="edgeStyle=orthogonalEdgeStyle;rounded=0;orthogonalLoop=1;jettySize=auto;html=1;" edge="1" parent="1" source="77SmK8_A5zseVmHeN4Ww-12" target="77SmK8_A5zseVmHeN4Ww-14">
          <mxGeometry relative="1" as="geometry" />
        </mxCell>
        <mxCell id="77SmK8_A5zseVmHeN4Ww-12" value="คำนวณ Area = (Height * Width) / 2" style="rounded=0;whiteSpace=wrap;html=1;" vertex="1" parent="1">
          <mxGeometry x="350" y="560" width="120" height="60" as="geometry" />
        </mxCell>
        <mxCell id="77SmK8_A5zseVmHeN4Ww-18" value="" style="edgeStyle=orthogonalEdgeStyle;rounded=0;orthogonalLoop=1;jettySize=auto;html=1;" edge="1" parent="1" source="77SmK8_A5zseVmHeN4Ww-14" target="77SmK8_A5zseVmHeN4Ww-17">
          <mxGeometry relative="1" as="geometry" />
        </mxCell>
        <mxCell id="77SmK8_A5zseVmHeN4Ww-14" value="แสดงผล &quot;Area is ...&quot;" style="shape=parallelogram;perimeter=parallelogramPerimeter;whiteSpace=wrap;html=1;fixedSize=1;" vertex="1" parent="1">
          <mxGeometry x="350" y="650" width="120" height="60" as="geometry" />
        </mxCell>
        <mxCell id="77SmK8_A5zseVmHeN4Ww-17" value="&#xa;End&#xa;&#xa;" style="ellipse;whiteSpace=wrap;html=1;" vertex="1" parent="1">
          <mxGeometry x="350" y="740" width="120" height="80" as="geometry" />
        </mxCell>
      </root>
    </mxGraphModel>
  </diagram>
</mxfile>
